<svg xmlns="http://www.w3.org/2000/svg" width="19" height="17" viewBox="0 0 19 17">
  <path id="Shape_12" data-name="Shape 12" d="M1058.109,1472.362h-12.1l-2.411,2.381a.894.894,0,0,1-.63.257h-.011a.894.894,0,0,1-.619-.256l-.01-.012a.92.92,0,0,1-.1-.118c-.011-.017-.019-.037-.03-.054a.8.8,0,0,1-.052-.1c-.007-.016-.01-.034-.016-.05a.831.831,0,0,1-.036-.115.865.865,0,0,1-.018-.177h0v-1.759h-1.188a.885.885,0,0,1-.89-.879v-12.6a.885.885,0,0,1,.891-.879h17.219a.885.885,0,0,1,.891.879v12.6A.885.885,0,0,1,1058.109,1472.362Z" transform="translate(-1040 -1458)" fill="#e5e5e5"/>
</svg>
