<svg xmlns="http://www.w3.org/2000/svg" width="32.774" height="9.017" viewBox="0 0 32.774 9.017">
  <path id="Color_Overlay" data-name="Color Overlay" d="M1347.733,1215.561v-1.031a3.059,3.059,0,0,0,1.945.668,2.623,2.623,0,0,0,.794-.112,1.767,1.767,0,0,0,.609-.322,1.431,1.431,0,0,0,.393-.509,1.594,1.594,0,0,0,.138-.674q0-1.646-2.344-1.646h-.7v-.814h.661q2.075,0,2.075-1.547,0-1.43-1.582-1.43a2.693,2.693,0,0,0-1.669.6v-.932a3.647,3.647,0,0,1,1.91-.48,2.943,2.943,0,0,1,.955.146,2.205,2.205,0,0,1,.733.41,1.807,1.807,0,0,1,.472.633,1.951,1.951,0,0,1,.167.814,2.052,2.052,0,0,1-1.676,2.133v.023a2.664,2.664,0,0,1,.791.208,2.1,2.1,0,0,1,.626.419,1.85,1.85,0,0,1,.413.606,1.936,1.936,0,0,1,.149.77,2.458,2.458,0,0,1-.213,1.035,2.282,2.282,0,0,1-.6.8,2.8,2.8,0,0,1-.934.513,3.8,3.8,0,0,1-1.2.181A3.492,3.492,0,0,1,1347.733,1215.561Zm7.9.264a2.631,2.631,0,0,1-.861-.508,2.259,2.259,0,0,1-.565-.782,2.456,2.456,0,0,1-.2-1.007,2.216,2.216,0,0,1,.106-.671,2.418,2.418,0,0,1,.3-.63,2.478,2.478,0,0,1,.486-.533,2.31,2.31,0,0,1,.66-.381,2.5,2.5,0,0,1-.868-.783,1.845,1.845,0,0,1-.322-1.057,2.041,2.041,0,0,1,.674-1.535,2.275,2.275,0,0,1,.75-.448,2.8,2.8,0,0,1,1.881,0,2.311,2.311,0,0,1,.75.451,2.023,2.023,0,0,1,.492.68,2.058,2.058,0,0,1,.176.85,1.845,1.845,0,0,1-.322,1.057,2.516,2.516,0,0,1-.855.783,2.281,2.281,0,0,1,.65.381,2.542,2.542,0,0,1,.484.533,2.446,2.446,0,0,1,.3.63,2.242,2.242,0,0,1,.105.671,2.5,2.5,0,0,1-.2,1.007,2.244,2.244,0,0,1-.56.782,2.592,2.592,0,0,1-.861.508,3.231,3.231,0,0,1-1.1.181A3.191,3.191,0,0,1,1355.637,1215.824Zm.431-3.958a1.6,1.6,0,0,0-.534.351,1.645,1.645,0,0,0-.355.539,1.806,1.806,0,0,0-.129.688,1.984,1.984,0,0,0,.121.709,1.535,1.535,0,0,0,.339.539,1.488,1.488,0,0,0,.534.343,1.923,1.923,0,0,0,.694.12,1.829,1.829,0,0,0,.68-.122,1.537,1.537,0,0,0,.888-.885,1.9,1.9,0,0,0,.126-.7,1.8,1.8,0,0,0-.121-.659,1.64,1.64,0,0,0-.343-.542,1.592,1.592,0,0,0-.533-.369,1.732,1.732,0,0,0-.7-.135A1.756,1.756,0,0,0,1356.068,1211.866Zm.105-3.618a1.353,1.353,0,0,0-.439.3,1.318,1.318,0,0,0-.284.448,1.51,1.51,0,0,0-.1.551,1.4,1.4,0,0,0,.408,1,1.4,1.4,0,0,0,.442.3,1.357,1.357,0,0,0,.539.108,1.343,1.343,0,0,0,.542-.111,1.4,1.4,0,0,0,.443-.3,1.458,1.458,0,0,0,.3-.445,1.361,1.361,0,0,0,.112-.548,1.425,1.425,0,0,0-.109-.562,1.363,1.363,0,0,0-.738-.742,1.466,1.466,0,0,0-1.113,0Zm-18.616,7.562-3.733-3.873a2.95,2.95,0,0,1,0-4.09,2.757,2.757,0,0,1,1.989-.848,2.528,2.528,0,0,1,1.885.848h0l.3.367.3-.391h0a2.508,2.508,0,0,1,1.885-.824,2.756,2.756,0,0,1,1.989.848,2.953,2.953,0,0,1,0,4.09l-3.733,3.872a.614.614,0,0,1-.887,0Zm23.032.061v-.417a3.455,3.455,0,0,1,.117-.949,2.47,2.47,0,0,1,.386-.779,4.32,4.32,0,0,1,.706-.738q.436-.37,1.069-.833a6.657,6.657,0,0,0,.765-.627,3.226,3.226,0,0,0,.495-.6,2.155,2.155,0,0,0,.266-.606,2.6,2.6,0,0,0,.079-.653,1.737,1.737,0,0,0-.121-.674,1.3,1.3,0,0,0-.817-.761,1.9,1.9,0,0,0-.609-.094,2.034,2.034,0,0,0-.551.076,2.753,2.753,0,0,0-.524.211,3.206,3.206,0,0,0-.492.323,3.52,3.52,0,0,0-.443.416v-1.031a2.875,2.875,0,0,1,.905-.6,3.188,3.188,0,0,1,1.221-.208,2.949,2.949,0,0,1,.956.149,2.181,2.181,0,0,1,.761.437,2.013,2.013,0,0,1,.507.708,2.391,2.391,0,0,1,.185.967,3.3,3.3,0,0,1-.114.9,2.758,2.758,0,0,1-.346.762,3.656,3.656,0,0,1-.583.685,8.079,8.079,0,0,1-.826.668q-.591.423-.976.721a4.362,4.362,0,0,0-.609.56,1.616,1.616,0,0,0-.316.521,1.81,1.81,0,0,0-.091.6h4.183v.861Z" transform="translate(-1333 -1207)" fill="#fff"/>
</svg>
